<?xml version="1.0" encoding="UTF-8" standalone="no"?>
<svg 
  version="1.1" 
  xmlns="http://www.w3.org/2000/svg" 
  xmlns:xlink="http://www.w3.org/1999/xlink" 
  xmlns:svg="http://www.w3.org/2000/svg"
  xmlns:rdf="http://www.w3.org/1999/02/22-rdf-syntax-ns#"
  xmlns:cc="http://creativecommons.org/ns#"
  xmlns:dc="http://purl.org/dc/elements/1.1/"
  viewBox="0 0 768 768"
  width="768"
  height="768"
>
<style>svg {background-color: white; }</style>"
<metadata id="metadata1">
Created by https://svgstud.io and licensed under CC-BY-SA 4.0 license. Please attribute https://svgstud.io
</metadata>
<metadata id="prompt">
convolutional neural network
</metadata>
<metadata id="version">
7
</metadata>
<metadata id="metadata2">
<rdf:RDF>
<cc:Work
    rdf:about="">
    <cc:license
    rdf:resource="http://creativecommons.org/licenses/by-sa/4.0/" />
    <dc:creator>
        <cc:Agent>
            <dc:title>https://svgstud.io</dc:title>
        </cc:Agent>
    </dc:creator>
</cc:Work>
<cc:License
    rdf:about="http://creativecommons.org/licenses/by-sa/4.0/">
    <cc:permits
    rdf:resource="http://creativecommons.org/ns#Reproduction" />
    <cc:permits
    rdf:resource="http://creativecommons.org/ns#Distribution" />
    <cc:requires
    rdf:resource="http://creativecommons.org/ns#Notice" />
    <cc:requires
    rdf:resource="http://creativecommons.org/ns#Attribution" />
    <cc:permits
    rdf:resource="http://creativecommons.org/ns#DerivativeWorks" />
    <cc:requires
    rdf:resource="http://creativecommons.org/ns#ShareAlike" />
</cc:License>
</rdf:RDF>
</metadata>
<metadata id="uid">
cd6f49ac0a43474944d77cc73ace125fc92be30e6622b8456195c92803b7ebbd
</metadata>
<path stroke="none" fill="black" fill-rule="evenodd" d="M391.55,733.00C390.37,733.00 388.86,732.46 388.20,731.80C387.28,730.88 387.00,709.83 387.01,643.05C387.02,594.90 387.30,554.46 387.64,553.20C388.15,551.32 388.84,550.95 391.38,551.20C394.50,551.50 394.50,551.50 394.75,577.50C394.89,591.80 395.39,631.85 395.86,666.50C396.61,722.12 396.54,729.70 395.20,731.25C394.37,732.21 392.72,733.00 391.55,733.00zM514.00,685.84C512.08,685.77 506.23,685.38 501.00,684.97C495.77,684.57 489.56,683.71 487.20,683.07C484.83,682.42 482.64,681.23 482.33,680.41C482.01,679.59 482.49,678.12 483.38,677.13C484.79,675.57 485.00,671.82 485.00,648.17C485.00,621.00 485.00,621.00 497.75,620.90C504.76,620.85 511.62,620.46 513.00,620.04C514.83,619.48 515.10,619.12 514.00,618.69C513.17,618.37 507.10,617.63 500.50,617.05C493.90,616.47 487.57,615.73 486.43,615.42C484.40,614.87 484.36,614.35 484.53,591.38C484.64,576.06 485.08,567.52 485.79,566.81C486.48,566.12 496.04,565.57 512.68,565.29C526.88,565.05 539.17,564.62 540.00,564.34C540.98,564.01 539.89,563.01 536.84,561.44C533.07,559.51 530.59,559.04 523.84,558.99C519.25,558.96 511.11,558.67 505.75,558.34C495.99,557.74 495.99,557.74 495.16,554.62C494.48,552.10 493.86,551.55 491.91,551.77C490.58,551.92 487.48,553.46 485.00,555.18C482.52,556.90 478.85,559.87 476.83,561.78C473.59,564.85 472.74,565.17 469.58,564.58C466.94,564.09 465.55,563.07 464.27,560.71C463.09,558.52 462.55,555.27 462.56,550.50C462.58,545.52 463.11,542.60 464.43,540.39C465.44,538.67 467.67,536.42 469.39,535.39C472.27,533.64 474.95,533.50 506.00,533.50C530.66,533.50 540.45,533.84 543.10,534.78C545.08,535.48 547.78,537.21 549.10,538.61C551.50,541.16 551.50,541.16 552.12,593.83C552.46,622.80 552.88,653.65 553.05,662.38C553.34,677.07 553.21,678.37 551.45,679.66C550.40,680.43 547.28,681.74 544.52,682.58C541.76,683.41 534.55,684.52 528.50,685.03C522.45,685.55 515.92,685.91 514.00,685.84zM257.00,684.56C246.82,684.72 235.42,684.47 231.66,684.00C227.89,683.53 224.61,682.94 224.35,682.68C224.09,682.43 223.92,668.81 223.97,652.43C224.03,632.44 224.42,622.20 225.15,621.32C225.93,620.38 229.31,620.00 236.87,619.98C242.72,619.98 248.18,619.53 249.00,619.00C249.82,618.47 250.26,618.02 249.96,618.02C249.67,618.01 244.14,617.34 237.69,616.54C231.23,615.74 225.51,614.82 224.98,614.49C224.39,614.12 224.00,604.47 224.00,590.06C224.00,569.12 224.20,566.08 225.65,564.87C226.98,563.78 232.41,563.54 252.70,563.71C275.81,563.91 278.34,564.10 280.80,565.83C282.28,566.87 285.23,568.28 287.35,568.97C289.70,569.73 294.75,570.08 300.30,569.86C309.40,569.50 309.40,569.50 310.19,573.00C310.62,574.92 310.74,577.54 310.45,578.81C310.11,580.32 308.46,581.80 305.71,583.04C302.82,584.36 299.22,584.96 294.22,584.98C290.10,584.99 285.44,584.38 283.50,583.56C280.07,582.13 280.07,582.13 279.40,585.66C279.04,587.60 278.95,595.00 279.21,602.10C279.46,609.19 279.41,615.00 279.09,615.00C278.76,615.01 278.37,624.34 278.22,635.75C278.07,647.16 278.22,661.08 278.56,666.68C279.03,674.33 279.55,677.00 280.66,677.42C281.48,677.74 282.98,677.55 284.00,677.00C285.64,676.12 285.89,674.42 286.17,662.03C286.49,648.27 286.55,647.99 289.27,645.27C292.04,642.50 292.04,642.50 310.27,642.18C320.30,642.00 330.86,642.14 333.75,642.50C336.64,642.85 339.68,643.82 340.50,644.64C341.60,645.74 342.00,648.41 342.00,654.57C342.00,661.67 341.68,663.32 340.00,665.00C338.90,666.10 336.54,667.09 334.75,667.21C332.96,667.32 323.43,667.43 313.56,667.46C295.62,667.50 295.62,667.50 294.55,671.85C293.96,674.24 292.43,677.05 291.14,678.09C289.85,679.13 285.81,680.95 282.15,682.13C276.52,683.94 272.65,684.31 257.00,684.56zM218.15,682.00C217.13,682.00 214.77,680.97 212.90,679.72C210.46,678.08 209.41,676.56 209.20,674.35C208.92,671.50 208.54,671.21 204.31,670.63C201.78,670.28 196.07,669.99 191.61,669.99C187.12,669.98 182.39,669.41 181.00,668.71C179.23,667.82 178.41,666.49 178.18,664.13C177.98,662.02 178.49,660.12 179.58,658.91C181.13,657.20 182.81,657.00 195.65,657.00C210.00,657.00 210.00,657.00 210.00,663.38C210.00,666.88 210.28,671.17 210.63,672.91C211.10,675.27 212.37,676.72 215.63,678.63C218.03,680.04 220.00,681.37 220.00,681.60C220.00,681.82 219.17,682.00 218.15,682.00zM572.25,677.00C562.78,677.00 559.82,676.69 559.41,675.64C559.13,674.89 559.03,671.63 559.20,668.39C559.50,662.50 559.50,662.50 572.65,662.22C583.63,661.99 586.07,662.21 587.40,663.54C588.38,664.52 589.00,666.84 589.00,669.51C589.00,672.90 588.50,674.24 586.78,675.44C585.06,676.65 581.77,677.00 572.25,677.00zM453.62,669.88C446.40,669.79 440.05,669.60 439.50,669.45C438.95,669.30 437.32,668.92 435.88,668.60C434.18,668.23 432.80,666.94 431.99,664.97C431.14,662.92 430.92,659.52 431.32,654.70C431.79,648.99 432.36,647.14 434.07,645.75C435.93,644.24 438.50,644.00 452.91,644.00C464.56,644.00 469.96,644.36 470.80,645.20C471.59,645.99 472.00,650.14 472.00,657.22C472.00,667.99 471.99,668.05 469.37,669.05C467.92,669.60 460.84,669.97 453.62,669.88zM540.39,661.01C541.08,660.32 541.63,653.73 541.85,643.45C542.20,627.29 542.17,627.00 540.10,627.00C538.06,627.00 538.00,627.43 538.00,641.38C538.00,649.28 538.29,657.18 538.64,658.94C539.11,661.28 539.57,661.83 540.39,661.01zM150.00,653.51C142.03,653.71 132.17,653.47 128.10,652.95C124.04,652.44 119.10,651.23 117.13,650.26C113.56,648.50 113.56,648.50 113.85,629.00C114.00,618.27 114.39,608.43 114.71,607.13C115.24,604.90 115.59,604.79 120.39,605.40C123.20,605.76 131.60,606.33 139.05,606.67C147.79,607.07 155.59,606.85 161.05,606.06C165.70,605.38 171.64,603.91 174.25,602.79C176.86,601.67 179.00,600.33 179.00,599.81C179.00,599.29 178.21,599.10 177.25,599.38C176.29,599.66 171.90,600.63 167.50,601.52C162.35,602.57 154.51,603.15 145.50,603.15C137.80,603.15 128.47,602.66 124.78,602.06C121.08,601.46 116.89,600.53 115.47,599.99C113.17,599.11 112.92,598.54 113.19,594.75C113.50,590.50 113.50,590.50 137.00,590.42C149.93,590.38 165.11,590.01 170.75,589.59C181.00,588.84 181.00,588.84 181.01,614.67C181.02,628.88 181.29,641.47 181.61,642.66C181.99,644.08 181.49,645.51 180.15,646.85C179.03,647.97 175.05,649.84 171.31,651.01C166.06,652.65 161.18,653.22 150.00,653.51zM625.50,653.58C614.76,653.83 607.16,653.50 602.37,652.59C598.44,651.84 594.42,650.78 593.43,650.22C591.77,649.29 591.65,647.57 591.90,628.47C592.05,617.06 592.40,607.12 592.69,606.37C593.04,605.45 594.05,605.23 595.85,605.68C597.30,606.04 607.26,606.35 617.99,606.37C630.24,606.40 639.30,605.95 642.34,605.18C645.00,604.50 648.83,603.24 650.84,602.36C652.85,601.49 653.98,600.58 653.34,600.33C652.70,600.09 648.48,600.59 643.98,601.45C639.15,602.36 630.38,603.00 622.64,602.99C615.41,602.99 606.58,602.51 603.00,601.94C599.42,601.36 595.46,600.21 594.19,599.38C592.35,598.18 591.95,597.14 592.19,594.19C592.50,590.50 592.50,590.50 618.50,589.98C640.80,589.54 645.11,589.21 648.75,587.63C651.08,586.61 653.67,586.04 654.50,586.36C655.79,586.86 656.00,591.18 656.00,616.95C656.00,646.95 656.00,646.95 653.55,648.56C652.20,649.44 648.94,650.85 646.30,651.69C643.10,652.71 636.16,653.34 625.50,653.58zM539.45,621.00C541.35,621.00 544.04,620.48 545.42,619.85C546.81,619.22 547.70,618.32 547.41,617.85C547.12,617.38 545.30,617.00 543.38,617.00C541.45,617.00 539.00,617.47 537.93,618.04C536.87,618.60 536.00,619.50 536.00,620.04C536.00,620.57 537.55,621.00 539.45,621.00zM329.33,619.96C327.22,619.95 324.40,619.32 323.05,618.57C321.70,617.83 320.27,616.38 319.87,615.36C319.47,614.34 319.13,602.92 319.11,590.00C319.10,577.08 319.46,564.57 319.92,562.21C320.37,559.85 320.99,557.67 321.30,557.37C321.60,557.07 323.69,556.41 325.94,555.90C328.95,555.23 330.92,555.36 333.43,556.41C335.31,557.19 337.33,558.74 337.92,559.85C338.61,561.15 339.00,571.20 339.00,588.01C339.00,614.15 339.00,614.15 336.08,617.08C333.84,619.31 332.25,619.99 329.33,619.96zM438.30,619.97C436.76,619.95 434.60,619.42 433.50,618.79C432.40,618.16 430.97,616.94 430.33,616.07C429.50,614.95 429.22,606.72 429.35,587.14C429.55,559.79 429.55,559.79 432.46,557.28C434.88,555.20 436.10,554.86 439.72,555.27C442.12,555.54 444.96,556.56 446.04,557.54C447.90,559.22 448.00,560.77 448.00,586.57C448.00,601.57 447.72,614.56 447.38,615.46C447.04,616.35 445.48,617.73 443.93,618.54C442.37,619.34 439.84,619.99 438.30,619.97zM539.86,613.00C541.36,613.00 541.92,612.02 542.46,608.43C542.83,605.92 542.82,597.13 542.43,588.89C541.81,575.90 541.50,573.95 540.11,574.22C538.71,574.49 538.46,577.02 538.23,593.76C537.97,612.12 538.04,613.00 539.86,613.00zM563.00,587.98C561.08,587.97 558.90,587.59 558.16,587.12C557.43,586.66 556.77,584.97 556.71,583.39C556.65,581.80 556.69,577.01 556.80,572.75C557.00,565.00 557.00,565.00 560.53,565.00C562.47,565.00 565.59,565.64 567.45,566.42C569.31,567.19 571.28,568.66 571.81,569.67C572.35,570.67 572.90,573.52 573.03,576.00C573.16,578.48 573.21,581.29 573.13,582.26C573.06,583.24 571.54,584.92 569.75,586.01C567.96,587.10 564.92,587.99 563.00,587.98zM157.75,584.73C149.36,584.64 140.11,584.42 137.20,584.23C131.90,583.89 131.90,583.89 132.20,578.70C132.50,573.50 132.50,573.50 137.25,572.95C139.86,572.65 142.53,571.87 143.19,571.21C144.13,570.27 143.96,569.68 142.45,568.51C141.38,567.69 139.60,566.83 138.50,566.61C137.40,566.38 132.50,565.68 127.60,565.05C122.71,564.42 117.42,563.24 115.85,562.42C113.19,561.05 113.00,560.55 113.00,554.85C113.00,548.74 113.00,548.74 121.75,549.35C126.56,549.68 136.35,550.22 143.50,550.55C150.75,550.89 161.14,550.67 167.00,550.06C172.78,549.45 178.74,548.69 180.25,548.36C182.89,547.79 183.00,547.92 182.90,551.63C182.85,553.76 182.49,556.62 182.11,557.98C181.61,559.78 180.10,560.96 176.67,562.23C174.06,563.20 168.68,564.48 164.71,565.08C160.74,565.67 156.49,566.56 155.25,567.06C153.80,567.64 153.00,568.80 153.00,570.32C153.00,571.63 153.91,573.51 155.02,574.52C156.40,575.77 156.72,576.68 156.02,577.38C155.46,577.94 155.00,578.75 155.00,579.18C155.00,579.61 156.99,579.69 159.42,579.36C162.84,578.89 164.90,579.26 168.42,580.96C170.94,582.18 173.00,583.56 173.00,584.03C173.00,584.50 166.14,584.81 157.75,584.73zM632.07,584.61C623.90,584.67 616.45,584.27 615.47,583.72C614.50,583.18 610.96,582.68 607.60,582.62C601.76,582.50 601.49,582.39 601.19,579.81C600.99,578.11 601.64,576.36 602.94,575.06C604.30,573.70 606.30,573.00 608.80,573.00C610.89,573.00 613.14,572.46 613.80,571.80C614.46,571.14 615.00,569.51 615.00,568.17C615.00,566.04 614.66,565.82 612.15,566.32C610.58,566.63 608.89,566.51 608.40,566.05C607.90,565.58 602.82,564.48 597.10,563.59C591.38,562.69 585.53,561.41 584.10,560.72C581.86,559.65 581.46,558.76 581.20,554.21C580.89,548.93 580.89,548.93 610.20,549.60C636.17,550.19 640.28,550.07 646.34,548.52C650.74,547.41 653.53,547.13 654.15,547.75C654.68,548.28 654.98,551.14 654.81,554.11C654.52,559.18 654.29,559.60 650.93,561.25C648.96,562.21 642.94,563.66 637.54,564.47C632.14,565.28 627.57,566.09 627.39,566.27C627.21,566.46 626.93,568.16 626.78,570.05C626.54,573.04 626.83,573.54 628.93,573.84C630.26,574.03 632.29,574.78 633.43,575.52C634.57,576.25 638.15,577.53 641.39,578.37C644.63,579.20 647.76,580.36 648.34,580.94C649.09,581.69 649.03,582.37 648.15,583.25C647.27,584.13 642.48,584.53 632.07,584.61zM204.50,580.65C203.40,580.73 200.03,580.38 197.00,579.87C193.98,579.36 190.72,578.17 189.77,577.22C188.83,576.27 187.77,574.11 187.43,572.41C186.95,570.02 187.35,568.74 189.16,566.73C191.23,564.43 192.40,564.10 199.29,563.80C207.07,563.46 207.07,563.46 206.79,571.98C206.53,579.68 206.31,580.51 204.50,580.65zM301.32,565.90C299.22,565.84 296.15,565.47 294.50,565.06C292.85,564.66 290.01,563.56 288.19,562.61C286.37,561.66 283.47,558.89 281.75,556.44C280.02,554.00 278.07,552.00 277.41,552.00C276.74,552.00 275.73,553.33 275.16,554.97C274.13,557.93 274.13,557.93 249.81,558.22C236.44,558.37 225.06,558.15 224.52,557.72C223.98,557.29 223.38,553.69 223.18,549.72C222.99,545.75 223.30,541.28 223.87,539.80C224.45,538.31 226.40,536.29 228.21,535.30C231.12,533.70 234.31,533.50 256.17,533.50C269.73,533.50 281.13,533.80 281.49,534.16C281.85,534.52 281.34,537.08 280.36,539.86C279.37,542.63 278.95,545.26 279.42,545.70C279.89,546.14 280.48,545.91 280.74,545.19C280.99,544.48 282.62,542.04 284.35,539.77C286.45,537.03 288.89,535.19 291.68,534.27C294.95,533.18 296.75,533.12 300.01,534.00C302.29,534.62 305.72,536.56 307.63,538.31C309.98,540.47 311.43,542.94 312.11,545.96C312.66,548.41 312.80,552.24 312.43,554.46C312.07,556.68 311.14,559.72 310.37,561.22C309.61,562.72 308.11,564.40 307.06,564.97C306.00,565.54 303.41,565.95 301.32,565.90zM156.76,545.57C148.92,545.67 140.25,545.56 137.50,545.32C134.75,545.08 132.13,544.51 131.68,544.07C131.22,543.62 132.03,542.96 133.46,542.60C134.90,542.24 136.80,542.35 137.68,542.84C138.56,543.33 140.09,543.53 141.07,543.27C142.06,543.01 143.12,542.14 143.43,541.32C143.74,540.50 143.34,538.89 142.53,537.74C141.65,536.48 141.41,535.21 141.93,534.57C142.41,533.98 142.95,532.09 143.13,530.38C143.31,528.66 142.91,526.60 142.26,525.81C141.38,524.76 141.33,523.38 142.07,520.70C142.77,518.19 142.76,516.41 142.04,515.08C141.47,514.01 141.00,511.98 141.00,510.57C141.00,509.15 140.66,507.96 140.25,507.90C139.84,507.85 137.47,507.62 135.00,507.41C132.53,507.19 128.20,506.54 125.38,505.97C122.57,505.39 119.42,504.28 118.38,503.52C116.79,502.33 116.69,501.81 117.75,500.07C118.68,498.55 118.99,490.38 118.96,468.26C118.93,451.89 118.56,436.70 118.14,434.50C117.36,430.50 117.36,430.50 140.43,430.83C155.10,431.03 165.64,430.73 169.38,430.00C172.61,429.37 177.25,427.88 179.68,426.70C182.38,425.39 184.38,424.93 184.80,425.53C185.23,426.12 196.93,426.50 214.83,426.50C242.71,426.50 244.23,426.60 245.58,428.44C246.39,429.54 247.00,432.69 247.00,435.71C247.00,440.63 246.76,441.18 243.75,443.05C240.64,444.98 239.39,445.04 214.50,444.48C200.20,444.15 187.49,443.68 186.25,443.42C184.72,443.11 184.00,443.44 184.00,444.44C184.00,445.25 182.27,447.73 180.15,449.96C177.64,452.60 175.44,454.00 173.78,454.00C172.38,454.00 170.78,453.44 170.21,452.75C169.64,452.06 168.76,449.93 168.25,448.00C167.49,445.12 167.19,446.85 166.57,457.75C166.16,465.04 166.14,476.87 166.54,484.05C167.26,497.11 167.26,497.11 170.38,496.80C173.50,496.50 173.50,496.49 173.79,489.84C173.96,486.13 174.62,482.77 175.29,482.27C175.97,481.77 186.46,481.56 199.00,481.79C221.50,482.21 221.50,482.21 221.50,491.43C221.50,500.65 221.50,500.65 200.86,500.19C180.21,499.74 180.21,499.74 174.09,502.80C170.71,504.49 165.38,506.17 162.23,506.55C159.08,506.94 155.91,507.72 155.19,508.29C154.47,508.87 153.98,510.50 154.09,511.92C154.20,513.34 153.94,515.32 153.51,516.31C153.08,517.32 153.24,519.24 153.87,520.60C154.76,522.57 154.67,523.57 153.44,525.45C152.41,527.02 152.24,528.03 152.95,528.47C153.53,528.82 154.00,531.08 154.00,533.48C154.00,536.06 153.49,538.01 152.75,538.27C151.85,538.59 152.02,539.29 153.36,540.81C155.00,542.66 155.96,542.83 161.51,542.32C164.96,541.99 169.03,542.04 170.54,542.42C172.59,542.94 173.00,543.40 172.16,544.24C171.44,544.96 165.81,545.45 156.76,545.57zM195.00,545.69C188.59,545.84 184.28,545.28 177.50,543.42C172.55,542.06 167.94,540.20 167.25,539.28C166.56,538.37 166.00,537.05 166.00,536.35C166.00,535.66 167.46,534.83 169.25,534.51C171.04,534.20 178.79,534.37 186.48,534.90C199.15,535.77 200.64,536.07 202.28,538.10C203.28,539.34 203.96,541.50 203.80,542.92C203.51,545.45 203.33,545.50 195.00,545.69zM628.50,544.85C620.80,544.85 613.94,544.62 613.25,544.34C612.56,544.06 612.00,543.20 612.00,542.42C612.00,541.64 612.62,541.00 613.38,541.00C614.14,541.00 615.27,540.38 615.90,539.62C616.79,538.55 616.69,538.09 615.44,537.62C614.56,537.28 612.90,537.00 611.75,537.00C610.60,537.00 610.00,536.66 610.42,536.25C610.83,535.84 611.58,535.44 612.08,535.38C612.59,535.31 613.45,535.19 614.00,535.12C614.55,535.06 615.00,534.14 615.00,533.08C615.00,532.03 614.73,530.45 614.39,529.58C614.06,528.71 612.93,528.00 611.89,528.00C610.85,528.00 610.00,527.32 610.00,526.48C610.00,525.36 610.66,525.13 612.49,525.59C614.28,526.04 615.16,525.75 615.61,524.57C615.96,523.66 615.53,522.14 614.64,521.16C613.17,519.53 613.18,519.25 614.70,517.73C616.08,516.35 616.15,515.64 615.16,513.46C614.51,512.03 614.22,510.45 614.53,509.95C614.83,509.46 613.83,508.82 612.29,508.53C610.76,508.23 606.58,507.31 603.02,506.46C599.45,505.62 596.12,504.52 595.62,504.02C595.07,503.47 595.86,502.87 597.61,502.50C599.20,502.16 601.17,501.52 602.00,501.08C603.27,500.40 603.58,495.09 604.00,465.89C604.50,431.50 604.50,431.50 619.00,430.46C630.70,429.61 632.63,429.27 629.00,428.71C626.52,428.32 619.35,427.56 613.06,427.02C606.77,426.47 601.24,425.64 600.78,425.18C600.31,424.71 600.43,423.01 601.04,421.41C601.65,419.81 602.37,410.18 602.64,400.00C602.90,389.82 603.30,380.60 603.52,379.50C603.89,377.58 604.58,377.51 620.32,377.82C629.35,377.99 643.15,377.68 650.99,377.14C658.84,376.59 665.74,375.66 666.33,375.07C667.09,374.31 666.98,373.99 665.95,373.97C665.15,373.96 650.92,373.97 634.33,374.00C617.73,374.03 603.93,373.69 603.66,373.26C603.39,372.82 603.04,365.04 602.90,355.98C602.63,339.50 602.63,339.50 628.06,338.79C642.34,338.39 656.99,337.45 661.45,336.65C665.83,335.86 669.99,335.44 670.70,335.72C671.73,336.11 672.02,344.74 672.12,377.86C672.18,400.76 672.16,420.18 672.07,421.00C671.97,421.82 670.82,423.47 669.51,424.65C668.16,425.87 663.79,427.59 659.46,428.61C653.17,430.09 651.63,430.84 650.89,432.79C650.38,434.13 650.24,447.81 650.57,464.33C651.00,486.27 651.47,493.87 652.45,495.00C653.17,495.82 654.05,497.44 654.40,498.58C654.81,499.94 654.41,501.21 653.26,502.23C652.29,503.10 649.08,504.52 646.12,505.39C643.15,506.26 637.88,507.26 634.39,507.62C630.90,507.98 628.30,508.68 628.61,509.18C628.92,509.68 628.49,511.13 627.66,512.39C626.62,513.99 626.32,516.06 626.71,519.10C627.02,521.52 627.73,524.08 628.29,524.79C629.00,525.68 628.96,526.44 628.16,527.24C627.52,527.88 627.00,529.79 627.00,531.50C627.00,533.21 627.54,535.14 628.20,535.80C629.13,536.73 629.13,537.00 628.20,537.00C627.54,537.00 627.00,537.90 627.00,539.00C627.00,540.10 627.56,541.04 628.25,541.08C628.94,541.12 632.29,541.09 635.69,541.01C639.10,540.93 642.91,541.42 644.17,542.09C646.38,543.27 646.39,543.34 644.48,544.09C643.39,544.51 636.20,544.86 628.50,544.85zM385.00,539.94C346.24,539.90 330.56,539.56 328.09,538.69C326.22,538.04 323.75,536.24 322.61,534.70C320.58,531.96 320.53,530.79 320.23,474.20C319.93,418.01 319.97,416.42 321.91,413.30C323.26,411.14 325.14,409.77 327.70,409.09C330.08,408.46 351.71,408.16 385.68,408.29C438.91,408.50 439.90,408.54 442.65,410.59C444.19,411.74 445.76,413.76 446.13,415.09C446.50,416.42 446.85,443.01 446.90,474.18C446.96,508.85 446.62,531.87 446.02,533.43C445.49,534.84 443.58,536.90 441.77,538.00C438.61,539.93 436.76,539.99 385.00,539.94zM480.69,509.00C477.73,509.00 475.69,508.36 474.19,506.96C472.02,504.94 472.00,504.61 472.00,471.10C472.00,438.87 472.09,437.15 473.98,434.75C475.08,433.36 477.17,431.92 478.64,431.55C480.11,431.19 482.57,431.41 484.12,432.05C485.67,432.69 487.17,433.95 487.45,434.86C487.74,435.76 488.13,451.98 488.33,470.91C488.67,503.28 488.58,505.42 486.84,507.16C485.62,508.38 483.55,509.00 480.69,509.00zM287.07,508.00C284.33,508.00 282.34,507.34 281.00,506.00C279.08,504.08 279.00,502.67 279.00,468.50C279.00,434.33 279.08,432.92 281.00,431.00C282.39,429.61 284.33,429.00 287.35,429.00C290.28,429.00 292.23,429.59 293.35,430.83C294.82,432.46 295.00,436.61 295.00,469.29C295.00,504.49 294.92,505.97 293.07,506.96C292.00,507.53 289.30,508.00 287.07,508.00zM240.17,501.60C237.28,501.91 234.55,501.58 233.00,500.75C230.77,499.55 230.52,498.84 230.72,494.20C230.84,491.33 231.44,488.05 232.05,486.91C232.66,485.77 234.69,484.19 236.55,483.42C238.41,482.64 241.32,482.00 243.01,482.00C244.95,482.00 247.00,482.91 248.55,484.45C250.22,486.13 251.00,488.03 251.00,490.41C251.00,492.33 250.52,494.96 249.93,496.26C249.34,497.55 247.96,499.17 246.85,499.86C245.75,500.55 242.74,501.33 240.17,501.60zM697.50,501.38C695.30,501.68 691.92,501.38 690.00,500.70C686.73,499.55 686.51,499.19 686.58,495.29C686.63,492.99 687.25,490.41 687.95,489.55C688.82,488.51 690.96,488.00 694.43,488.00C697.28,488.00 700.39,488.56 701.33,489.25C702.27,489.94 703.29,492.08 703.59,494.00C703.93,496.17 703.64,498.13 702.82,499.16C702.09,500.07 699.70,501.07 697.50,501.38zM69.94,500.79C64.57,501.03 63.08,500.75 61.69,499.21C60.76,498.18 60.00,495.75 60.00,493.79C60.00,491.84 60.63,489.72 61.41,489.07C62.27,488.36 65.48,488.02 69.66,488.20C76.50,488.50 76.50,488.50 76.50,494.50C76.50,500.50 76.50,500.50 69.94,500.79zM589.50,500.64C587.30,500.72 583.25,500.42 580.50,499.98C577.75,499.54 559.42,499.14 539.78,499.09C504.05,499.00 504.05,499.00 502.53,496.05C501.69,494.43 501.00,492.15 501.00,491.00C501.00,489.85 501.68,487.59 502.50,486.00C503.57,483.92 505.01,482.90 507.53,482.43C509.47,482.06 528.98,481.94 550.90,482.15C582.93,482.47 591.07,482.81 592.41,483.93C593.75,485.04 594.02,486.79 593.79,492.91C593.50,500.50 593.50,500.50 589.50,500.64zM671.71,500.85C668.85,500.77 664.48,500.43 662.00,500.10C657.50,499.50 657.50,499.50 657.50,494.00C657.50,488.50 657.50,488.50 668.00,488.50C678.50,488.50 678.50,488.50 678.81,492.71C678.97,495.03 678.62,497.84 678.02,498.96C677.12,500.65 676.03,500.97 671.71,500.85zM98.56,500.00C89.98,500.00 86.96,499.65 86.06,498.57C85.41,497.79 85.02,495.20 85.19,492.82C85.50,488.50 85.50,488.50 97.65,488.22C109.80,487.94 109.80,487.94 110.22,493.22C110.45,496.12 110.47,498.84 110.26,499.25C110.05,499.66 104.79,500.00 98.56,500.00zM372.18,488.98C375.88,489.00 376.99,488.61 377.46,487.14C377.78,486.12 377.76,484.54 377.42,483.64C377.01,482.59 375.63,482.00 373.57,482.00C371.50,482.00 369.57,481.18 368.18,479.69C366.95,478.38 365.75,475.43 365.39,472.86C364.96,469.66 365.24,467.43 366.38,465.24C367.26,463.54 368.93,461.84 370.09,461.47C371.66,460.97 373.06,461.64 375.59,464.08C377.45,465.89 379.27,467.07 379.63,466.70C379.99,466.34 379.89,463.70 379.39,460.83C378.58,456.06 378.22,455.55 375.23,454.78C373.29,454.28 370.43,454.35 368.18,454.95C366.11,455.51 363.22,457.21 361.77,458.73C360.31,460.26 358.65,462.77 358.06,464.32C357.48,465.86 357.00,469.21 357.00,471.75C357.00,474.37 357.89,478.21 359.06,480.62C360.19,482.96 362.56,485.80 364.31,486.92C366.34,488.23 369.20,488.97 372.18,488.98zM386.41,488.80C388.29,488.53 388.53,487.75 388.75,481.00C388.89,476.88 389.39,472.15 389.86,470.50C390.65,467.71 390.90,468.13 393.42,476.50C394.91,481.45 396.31,486.07 396.54,486.77C396.77,487.47 397.67,488.32 398.54,488.66C399.42,488.99 400.55,488.85 401.05,488.35C401.56,487.84 403.78,480.84 405.99,472.79C408.19,464.74 410.00,457.45 410.00,456.58C410.00,455.50 409.07,455.00 407.04,455.00C404.34,455.00 403.94,455.46 402.57,460.08C401.74,462.87 400.77,466.70 400.42,468.59C400.06,470.48 399.42,472.24 398.99,472.50C398.57,472.77 397.27,469.47 396.11,465.17C394.95,460.88 394.00,456.80 394.00,456.12C394.00,455.32 392.86,454.99 390.82,455.19C387.83,455.48 387.43,456.01 384.27,464.00C381.40,471.23 380.95,473.49 381.22,479.13C381.41,482.85 382.16,486.49 382.94,487.43C383.70,488.34 385.26,488.96 386.41,488.80zM101.75,460.94C96.66,460.90 91.50,460.47 90.28,459.98C89.06,459.49 87.78,457.97 87.44,456.62C87.10,455.26 87.12,453.21 87.48,452.07C88.09,450.14 88.88,450.00 99.57,450.00C111.00,450.00 111.00,450.00 111.00,455.50C111.00,461.00 111.00,461.00 101.75,460.94zM666.80,461.00C657.00,461.00 657.00,461.00 657.00,455.50C657.00,450.00 657.00,450.00 668.00,450.00C679.00,450.00 679.00,450.00 679.00,454.30C679.00,456.67 678.46,459.14 677.80,459.80C677.03,460.57 673.09,461.00 666.80,461.00zM590.56,458.92C589.98,458.88 587.95,458.29 586.06,457.60C584.16,456.92 581.69,455.12 580.56,453.60C578.74,451.17 578.50,449.39 578.50,438.50C578.50,431.72 578.85,425.81 579.28,425.38C579.71,424.95 582.19,425.16 584.78,425.84C587.38,426.51 590.62,427.89 592.00,428.89C594.41,430.65 594.51,431.16 594.78,443.60C595.03,454.84 594.84,456.64 593.34,457.74C592.39,458.43 591.14,458.97 590.56,458.92zM694.27,458.00C692.72,458.00 690.44,457.30 689.22,456.44C687.01,454.89 687.00,454.80 687.00,423.44C687.00,393.33 687.08,391.92 689.00,390.00C690.31,388.69 692.33,388.00 694.87,388.00C697.26,388.00 699.73,388.79 701.37,390.07C704.00,392.15 704.00,392.15 704.00,421.99C704.00,438.41 703.72,452.56 703.38,453.46C703.04,454.35 701.48,455.73 699.93,456.54C698.37,457.34 695.83,458.00 694.27,458.00zM71.51,456.00C68.73,456.00 66.36,455.28 64.63,453.93C62.00,451.85 62.00,451.85 62.00,422.38C62.00,392.91 62.00,392.91 64.45,390.45C66.23,388.68 68.00,388.00 70.83,388.00C72.99,388.00 75.22,388.56 75.79,389.25C76.42,390.02 77.06,402.67 77.43,421.87C77.87,444.72 77.73,453.62 76.90,454.62C76.26,455.40 73.89,456.00 71.51,456.00zM553.16,444.79C542.90,444.68 530.00,444.44 524.50,444.28C515.78,444.01 514.28,443.70 512.75,441.88C511.68,440.60 511.00,438.11 511.00,435.50C511.00,432.78 511.70,430.36 512.91,428.86C514.82,426.50 514.82,426.50 543.13,426.50C571.44,426.50 571.44,426.50 572.25,431.00C572.69,433.48 572.77,437.64 572.43,440.25C571.81,445.00 571.81,445.00 553.16,444.79zM114.19,429.91C113.26,429.87 110.25,429.28 107.50,428.60C104.75,427.92 101.49,426.82 100.25,426.15C98.01,424.94 98.00,424.79 98.00,401.02C98.00,387.88 98.34,376.95 98.75,376.75C99.16,376.55 106.99,376.81 116.15,377.32C125.31,377.83 136.67,377.93 141.40,377.54C146.13,377.14 150.00,376.46 150.00,376.02C150.00,375.58 142.01,374.92 132.25,374.56C122.49,374.19 110.90,373.58 106.50,373.20C98.50,372.50 98.50,372.50 98.23,354.94C97.96,337.37 97.96,337.37 128.73,337.81C154.07,338.16 160.99,337.96 167.93,336.64C172.56,335.76 176.78,334.62 177.29,334.11C177.86,333.54 177.44,332.77 176.19,332.10C174.79,331.35 172.57,331.32 168.98,332.00C166.12,332.55 153.65,333.01 141.27,333.04C128.89,333.07 118.70,332.96 118.62,332.80C118.54,332.63 118.71,327.77 118.99,322.00C119.50,311.50 119.50,311.50 140.00,310.91C151.28,310.58 160.72,310.19 161.00,310.03C161.28,309.88 159.47,309.39 157.00,308.95C154.53,308.51 145.22,308.11 136.33,308.07C120.16,308.00 120.16,308.00 119.68,305.25C119.42,303.74 119.27,289.15 119.35,272.84C119.43,256.52 119.86,242.81 120.29,242.38C120.72,241.94 128.26,241.31 137.03,240.97C145.80,240.63 153.24,240.09 153.56,239.78C153.87,239.46 148.81,238.92 142.31,238.58C135.82,238.23 127.12,237.50 123.00,236.94C118.24,236.31 114.85,235.29 113.73,234.17C112.75,233.20 111.78,231.00 111.56,229.28C111.34,227.56 111.70,225.42 112.36,224.52C113.02,223.62 115.34,222.49 117.53,222.00C119.71,221.52 133.20,221.01 147.50,220.89C161.80,220.76 176.11,221.02 179.30,221.45C182.49,221.89 185.75,222.90 186.55,223.69C187.35,224.49 188.00,226.68 188.00,228.55C188.00,231.06 187.36,232.38 185.54,233.57C184.18,234.45 179.35,235.71 174.79,236.36C166.50,237.54 166.50,237.54 165.89,273.02C165.55,292.53 165.24,312.30 165.20,316.94C165.15,321.57 165.34,325.74 165.61,326.19C165.89,326.63 166.48,327.00 166.92,327.00C167.36,327.00 167.97,324.54 168.29,321.53C168.60,318.51 169.14,315.59 169.48,315.03C169.83,314.46 172.09,314.00 174.49,314.00C176.90,314.00 180.03,314.44 181.45,314.98C182.87,315.52 184.41,316.98 184.87,318.23C185.33,319.48 186.01,324.91 186.38,330.29C187.05,340.08 187.05,340.08 183.52,341.55C180.97,342.62 180.00,343.65 180.00,345.28C180.00,346.52 178.86,349.22 177.46,351.27C176.07,353.32 174.47,355.00 173.91,355.00C173.35,355.00 171.92,357.14 170.75,359.75C169.01,363.60 168.53,366.95 168.21,377.50C167.99,384.65 168.27,393.81 168.83,397.85C169.44,402.21 170.57,405.98 171.61,407.13C173.14,408.82 173.55,408.88 174.81,407.62C176.08,406.35 175.99,405.61 174.13,401.77C172.67,398.75 172.01,395.50 172.04,391.43C172.05,388.17 172.71,384.38 173.50,383.00C174.29,381.62 174.95,378.44 174.96,375.93C174.98,373.42 175.67,369.11 176.49,366.35C177.31,363.59 178.86,360.53 179.94,359.55C181.82,357.85 182.17,357.88 188.70,360.19C195.50,362.60 195.50,362.60 195.34,366.55C195.25,368.72 194.86,372.79 194.47,375.58C193.97,379.23 194.19,381.49 195.25,383.58C196.05,385.19 196.99,387.96 197.33,389.76C197.67,391.55 197.46,394.08 196.87,395.40C196.27,396.71 194.82,398.28 193.64,398.90C192.46,399.52 189.47,400.60 187.00,401.30C182.50,402.58 182.50,402.58 181.98,411.16C181.69,416.01 180.90,420.42 180.16,421.31C179.44,422.18 176.74,423.57 174.17,424.39C171.60,425.22 166.83,426.37 163.57,426.95C160.30,427.53 148.52,428.00 137.38,428.00C124.95,428.00 116.88,428.39 116.50,429.00C116.16,429.55 115.12,429.96 114.19,429.91zM269.50,411.63C257.40,411.71 244.50,411.48 240.83,411.13C237.16,410.78 233.80,410.14 233.37,409.70C232.93,409.26 233.04,408.16 233.62,407.24C234.19,406.33 236.17,405.19 238.01,404.72C239.85,404.24 252.63,404.00 266.43,404.18C284.50,404.41 292.13,404.86 293.75,405.79C294.99,406.49 296.00,407.49 296.00,408.00C296.00,408.51 294.99,409.51 293.75,410.21C292.13,411.14 285.38,411.54 269.50,411.63zM499.50,411.82C490.15,411.74 479.26,411.41 475.30,411.09C471.34,410.76 467.53,409.93 466.84,409.24C465.83,408.23 465.93,407.64 467.33,406.24C468.87,404.70 471.90,404.46 493.80,404.16C517.25,403.84 518.62,403.93 520.29,405.77C521.26,406.84 521.78,408.41 521.45,409.26C521.13,410.11 519.88,411.07 518.68,411.39C517.48,411.71 508.85,411.91 499.50,411.82zM585.23,403.94C583.73,403.90 581.48,403.46 580.24,402.97C579.00,402.47 577.47,400.92 576.83,399.53C575.87,397.43 574.99,397.00 571.59,396.99C569.34,396.98 566.39,396.41 565.02,395.72C563.47,394.93 561.85,392.61 560.68,389.48C559.22,385.59 558.95,383.07 559.45,378.00C559.80,374.43 560.97,369.66 562.05,367.41C563.14,365.17 565.08,362.76 566.38,362.06C567.68,361.37 569.54,360.96 570.51,361.15C571.49,361.34 572.72,362.18 573.24,363.02C573.86,364.01 573.80,366.02 573.06,368.77C572.05,372.53 571.59,373.00 568.98,373.00C566.65,373.00 565.90,373.54 565.39,375.58C564.97,377.26 565.26,378.68 566.21,379.63C567.49,380.92 567.83,380.91 568.99,379.51C570.18,378.08 570.66,378.25 573.60,381.10C576.89,384.29 576.89,384.29 577.47,381.89C577.79,380.58 578.19,372.98 578.37,365.00C578.67,351.38 578.81,350.52 580.59,350.83C581.64,351.01 583.55,351.83 584.84,352.66C586.13,353.49 588.53,357.04 590.17,360.55C592.52,365.56 593.37,369.25 594.17,377.72C594.73,383.65 594.97,390.72 594.72,393.44C594.35,397.40 593.63,398.94 591.11,401.19C589.21,402.89 586.89,403.97 585.23,403.94zM212.19,396.67C209.30,396.89 206.51,396.48 204.93,395.58C203.52,394.78 201.54,392.30 200.53,390.08C199.08,386.84 198.83,384.58 199.31,378.89C199.67,374.50 200.79,369.98 202.20,367.13C203.47,364.58 205.62,361.94 207.00,361.26C208.38,360.59 211.75,360.03 214.50,360.03C217.25,360.03 220.12,360.42 220.87,360.90C222.02,361.63 222.00,362.54 220.71,366.63C219.87,369.31 218.91,372.71 218.59,374.18C218.26,375.65 218.46,378.07 219.02,379.54C219.77,381.52 220.55,382.09 221.98,381.72C223.05,381.44 224.43,381.81 225.04,382.54C225.87,383.54 225.65,385.01 224.17,388.36C223.08,390.82 220.99,393.61 219.54,394.57C218.08,395.52 214.77,396.47 212.19,396.67zM547.03,394.00C541.15,394.00 539.69,393.64 537.31,391.58C534.66,389.30 534.50,388.71 534.57,381.33C534.60,377.02 535.18,371.87 535.85,369.87C536.53,367.87 537.90,365.50 538.91,364.58C539.91,363.67 543.47,362.42 546.82,361.80C551.63,360.90 553.22,360.94 554.45,361.96C555.30,362.66 556.00,363.98 556.00,364.89C556.00,365.79 555.10,368.21 554.00,370.26C552.90,372.31 552.00,374.94 552.00,376.09C552.00,377.25 552.87,379.41 553.93,380.91C555.00,382.40 556.17,384.84 556.54,386.32C556.99,388.10 556.67,389.86 555.59,391.51C554.11,393.77 553.31,394.00 547.03,394.00zM587.87,382.98C588.77,382.98 590.10,382.59 590.82,382.13C591.61,381.63 592.02,379.96 591.82,378.00C591.65,376.18 590.71,374.21 589.75,373.61C588.48,372.81 587.52,372.81 586.25,373.61C585.29,374.21 584.35,375.92 584.18,377.41C584.00,378.90 584.39,380.77 585.05,381.56C585.71,382.35 586.98,382.99 587.87,382.98zM181.54,382.00C182.26,382.00 183.14,380.66 183.49,379.02C183.85,377.39 183.86,375.59 183.52,375.02C183.17,374.46 182.02,374.00 180.96,374.00C179.74,374.00 178.81,374.92 178.41,376.51C178.05,377.95 178.30,379.66 179.01,380.51C179.69,381.33 180.83,382.00 181.54,382.00zM191.27,381.13C191.74,380.66 191.99,378.42 191.81,376.16C191.51,372.14 191.45,372.08 189.00,373.30C187.62,373.99 186.36,375.51 186.19,376.68C186.00,378.00 186.75,379.41 188.15,380.39C189.41,381.27 190.80,381.60 191.27,381.13zM261.86,380.55C234.84,381.22 232.28,381.14 230.71,379.57C229.77,378.63 229.01,377.10 229.02,376.18C229.02,375.26 229.40,373.92 229.85,373.21C230.50,372.19 237.39,371.98 262.79,372.21C284.13,372.40 295.27,372.86 295.98,373.58C296.58,374.18 296.80,375.35 296.48,376.20C296.15,377.04 294.86,378.20 293.59,378.78C292.29,379.37 278.56,380.14 261.86,380.55zM434.00,380.23C431.52,380.44 406.53,380.36 378.45,380.06C331.52,379.54 327.19,379.35 324.66,377.70C323.15,376.71 321.48,374.76 320.96,373.38C320.39,371.89 320.00,346.93 320.00,311.84C320.00,260.15 320.20,252.39 321.58,249.48C322.48,247.58 324.58,245.48 326.48,244.58C329.38,243.20 336.69,243.00 383.75,243.00C437.70,243.00 437.70,243.00 441.09,245.28C442.95,246.53 445.03,248.67 445.72,250.03C446.68,251.92 446.97,266.39 446.97,312.00C446.97,357.30 446.68,372.08 445.73,373.95C445.05,375.29 443.15,377.17 441.50,378.12C439.85,379.06 436.48,380.02 434.00,380.23zM209.67,379.86C210.31,379.94 211.55,379.73 212.42,379.39C213.29,379.06 214.00,377.75 214.00,376.48C214.00,374.56 213.31,374.06 209.89,373.48C206.83,372.96 205.39,373.18 204.26,374.32C203.41,375.16 202.99,376.52 203.30,377.34C203.62,378.17 204.92,379.04 206.19,379.29C207.46,379.53 209.03,379.79 209.67,379.86zM502.81,379.84C487.79,379.75 474.07,379.50 472.32,379.28C470.58,379.06 468.57,378.18 467.86,377.33C466.77,376.02 466.92,375.49 468.75,374.00C470.64,372.47 474.05,372.13 493.22,371.53C505.47,371.15 518.65,370.98 522.50,371.17C529.50,371.50 529.50,371.50 529.81,375.75C530.11,380.00 530.11,380.00 502.81,379.84zM544.40,379.76C546.76,379.60 548.72,378.83 549.36,377.80C549.95,376.86 550.09,375.76 549.67,375.34C549.26,374.92 546.58,374.56 543.73,374.54C539.45,374.51 538.49,374.82 538.18,376.38C537.97,377.41 538.41,378.66 539.15,379.14C539.89,379.63 542.25,379.90 544.40,379.76zM694.77,374.00C692.94,374.00 690.44,373.30 689.22,372.44C687.08,370.94 687.00,370.32 687.00,354.01C687.00,340.01 687.27,336.88 688.57,335.57C689.53,334.62 691.88,334.00 694.57,334.00C697.67,334.00 699.60,334.60 701.00,336.00C702.83,337.83 703.00,339.33 703.00,353.55C703.00,368.72 702.94,369.15 700.55,371.55C698.92,373.17 696.96,374.00 694.77,374.00zM71.50,369.46C69.85,369.73 67.52,369.54 66.32,369.03C65.11,368.53 63.65,367.22 63.07,366.12C62.36,364.81 62.00,350.69 62.00,324.70C62.00,286.51 62.06,285.19 64.04,282.67C65.19,281.22 67.57,279.80 69.44,279.45C71.30,279.10 73.73,279.32 74.89,279.94C76.98,281.06 77.00,281.39 77.00,323.34C77.00,355.60 76.70,366.02 75.75,367.30C75.06,368.22 73.15,369.19 71.50,369.46zM287.25,353.94C285.19,353.90 282.49,353.47 281.25,352.97C279.00,352.06 279.00,352.06 279.00,314.59C279.00,277.11 279.00,277.11 281.22,275.56C282.44,274.70 284.86,274.00 286.59,274.00C288.32,274.00 290.92,274.93 292.37,276.07C295.00,278.15 295.00,278.15 295.00,314.07C295.00,348.67 294.93,350.07 293.00,352.00C291.68,353.32 289.73,353.98 287.25,353.94zM479.96,352.00C476.73,352.00 474.81,351.44 473.65,350.17C472.18,348.54 472.00,344.47 472.00,312.74C472.00,277.15 472.00,277.15 474.63,275.07C476.08,273.93 478.73,273.00 480.52,273.00C482.31,273.00 484.76,273.79 485.95,274.76C488.11,276.51 488.12,276.80 488.20,312.92C488.27,347.09 488.17,349.41 486.45,350.66C485.44,351.40 482.52,352.00 479.96,352.00zM587.13,340.92C585.13,340.88 582.29,340.40 580.80,339.85C578.60,339.05 577.98,338.05 577.43,334.40C577.07,331.95 576.96,327.24 577.20,323.94C577.47,320.17 578.25,317.32 579.29,316.29C580.33,315.24 583.19,314.47 587.08,314.19C590.71,313.93 593.48,314.17 593.86,314.77C594.21,315.34 594.25,320.77 593.93,326.83C593.58,333.66 592.87,338.45 592.06,339.43C591.28,340.36 589.29,340.97 587.13,340.92zM216.25,335.00C197.23,335.00 193.08,334.74 191.22,333.44C189.33,332.12 189.00,330.96 189.00,325.64C189.00,322.12 189.52,318.88 190.20,318.20C191.07,317.33 198.31,317.00 216.48,317.00C237.16,317.00 241.93,317.26 243.70,318.50C244.88,319.33 246.14,321.35 246.50,323.00C246.86,324.65 246.85,327.39 246.48,329.09C245.98,331.35 244.89,332.56 242.43,333.59C239.87,334.66 233.60,335.00 216.25,335.00zM567.50,334.54C565.30,334.56 552.48,334.45 539.00,334.28C517.42,334.02 514.35,333.78 513.25,332.30C512.56,331.37 512.00,328.55 512.00,326.03C512.00,323.50 512.70,320.45 513.56,319.22C515.10,317.02 515.35,317.00 541.87,317.00C561.94,317.00 569.05,317.32 570.36,318.27C571.79,319.32 572.04,320.85 571.80,327.02C571.50,334.50 571.50,334.50 567.50,334.54zM633.50,333.55C621.40,333.67 609.81,333.57 607.75,333.32C604.00,332.88 604.00,332.88 604.00,322.44C604.00,312.00 604.00,312.00 615.25,311.89C621.44,311.83 630.77,311.47 636.00,311.09C641.23,310.71 644.83,310.11 644.00,309.76C643.17,309.40 634.30,308.74 624.27,308.28C614.25,307.82 605.59,306.99 605.04,306.44C604.42,305.82 603.96,292.46 603.84,271.35C603.63,237.27 603.63,237.27 595.26,236.62C590.65,236.27 585.38,235.35 583.54,234.58C581.13,233.57 580.01,232.34 579.53,230.15C579.17,228.48 579.36,226.20 579.96,225.07C580.56,223.94 582.28,222.68 583.78,222.26C585.28,221.84 600.67,221.50 618.00,221.50C644.07,221.50 650.02,221.76 652.50,223.01C654.74,224.13 655.58,225.32 655.81,227.71C655.98,229.47 655.61,231.87 654.98,233.04C654.35,234.21 652.50,235.73 650.85,236.42C647.86,237.68 647.86,237.68 647.92,274.00C647.96,293.98 648.22,310.55 648.49,310.83C648.77,311.11 649.00,314.60 649.00,318.60C649.00,325.86 649.00,325.86 654.45,327.44C657.45,328.31 660.17,329.47 660.51,330.02C660.85,330.56 659.86,331.53 658.31,332.17C656.52,332.91 647.49,333.41 633.50,333.55zM371.83,329.80C373.93,329.55 374.68,328.50 376.42,323.32C377.56,319.92 378.78,316.86 379.13,316.52C379.48,316.19 380.07,318.01 380.46,320.58C380.89,323.47 382.07,326.16 383.53,327.63C385.58,329.67 386.88,330.00 392.85,330.00C398.36,330.00 399.92,329.66 400.42,328.36C400.76,327.46 400.77,325.84 400.42,324.76C399.87,323.02 399.20,322.87 394.57,323.45C390.38,323.97 389.06,323.77 387.97,322.46C387.13,321.45 386.60,318.27 386.58,314.16C386.57,310.50 386.89,306.26 387.30,304.75C388.00,302.14 388.34,302.00 394.02,302.00C400.00,302.00 400.00,302.00 400.00,298.50C400.00,295.00 400.00,295.00 392.04,295.00C384.64,295.00 383.90,295.19 381.53,297.75C380.13,299.26 377.79,303.54 376.33,307.25C374.88,310.96 373.39,314.00 373.04,314.00C372.68,314.00 371.36,309.73 370.10,304.50C367.81,295.00 367.81,295.00 363.59,295.00C359.37,295.00 359.37,295.00 364.35,312.55C369.18,329.60 369.40,330.09 371.83,329.80zM395.95,317.00C398.94,317.00 399.88,316.56 400.29,314.98C400.59,313.86 400.14,312.28 399.27,311.41C398.23,310.38 396.84,310.07 395.11,310.50C393.67,310.85 392.12,311.51 391.65,311.97C391.18,312.43 391.10,313.74 391.47,314.90C391.99,316.55 392.95,317.00 395.95,317.00zM693.45,314.00C691.30,314.00 689.22,313.22 687.94,311.94C685.98,309.98 685.90,308.95 686.19,290.54C686.47,273.19 686.70,270.99 688.40,269.10C689.70,267.67 691.52,267.00 694.10,267.00C696.66,267.00 698.80,267.78 700.69,269.41C703.50,271.83 703.50,271.83 703.85,288.96C704.09,300.52 703.82,307.01 703.03,308.92C702.39,310.47 700.75,312.25 699.39,312.87C698.02,313.49 695.35,314.00 693.45,314.00zM665.79,291.77C661.14,291.92 656.73,291.57 655.75,290.97C654.59,290.26 654.01,288.66 654.02,286.20C654.02,284.17 654.40,281.92 654.85,281.21C655.45,280.27 658.32,280.00 665.58,280.21C675.50,280.50 675.50,280.50 675.76,284.50C675.90,286.70 675.58,289.18 675.05,290.00C674.34,291.09 671.83,291.57 665.79,291.77zM98.74,290.78C86.97,291.06 86.97,291.06 85.99,288.47C85.44,287.04 85.00,284.78 85.00,283.46C85.00,282.01 85.97,280.41 87.41,279.47C89.31,278.22 92.04,277.95 100.16,278.19C110.50,278.50 110.50,278.50 110.50,284.50C110.50,290.50 110.50,290.50 98.74,290.78zM237.18,283.96C235.71,283.95 233.42,283.33 232.11,282.60C230.80,281.88 229.12,280.20 228.40,278.89C227.67,277.58 227.05,274.46 227.04,271.97C227.02,269.38 227.70,266.39 228.65,264.97C229.55,263.61 230.99,261.94 231.84,261.25C232.69,260.56 235.12,260.00 237.24,260.00C239.36,260.00 242.42,260.68 244.03,261.52C245.65,262.35 247.65,264.35 248.48,265.97C249.32,267.58 250.00,270.66 250.00,272.80C250.00,275.57 249.28,277.49 247.54,279.36C246.18,280.83 243.91,282.47 242.47,283.01C241.04,283.55 238.66,283.98 237.18,283.96zM588.69,279.77C586.38,279.65 567.17,279.31 546.00,279.02C518.34,278.65 506.90,278.16 505.37,277.28C504.19,276.61 502.96,275.33 502.62,274.45C502.28,273.56 502.00,271.12 502.00,269.03C502.00,266.89 502.77,264.27 503.75,263.06C505.49,260.91 505.74,260.90 548.69,260.73C572.45,260.63 592.13,260.80 592.44,261.10C592.74,261.41 593.27,263.72 593.62,266.25C593.97,268.78 593.94,272.90 593.56,275.42C592.88,280.00 592.88,280.00 588.69,279.77zM196.75,278.98C183.41,278.98 171.90,278.59 171.17,278.13C170.44,277.67 169.61,275.48 169.31,273.26C169.01,271.05 169.28,267.68 169.91,265.77C170.54,263.87 172.05,261.78 173.28,261.13C174.84,260.30 181.90,260.03 197.00,260.22C218.50,260.50 218.50,260.50 218.17,265.64C217.95,268.95 218.39,271.86 219.42,273.84C220.29,275.52 221.00,277.37 221.00,277.95C221.00,278.65 213.02,278.99 196.75,278.98zM668.65,272.94C663.62,272.90 658.49,272.47 657.25,271.97C655.66,271.33 655.00,270.23 655.00,268.23C655.00,266.67 655.54,264.86 656.20,264.20C656.97,263.43 660.90,263.00 667.13,263.00C674.64,263.00 677.22,263.36 678.43,264.57C679.29,265.44 680.00,266.27 680.00,266.42C680.00,266.58 679.51,268.12 678.90,269.85C677.80,273.00 677.80,273.00 668.65,272.94zM293.93,246.81C290.95,246.71 275.90,246.32 260.50,245.95C243.64,245.55 231.01,244.81 228.76,244.10C226.71,243.45 224.57,242.06 224.01,241.02C223.46,239.98 223.01,235.39 223.01,230.82C223.02,226.24 223.30,221.49 223.63,220.25C224.23,218.02 224.40,218.00 242.37,218.01C252.34,218.01 264.21,218.30 268.75,218.65C276.80,219.28 277.00,219.36 277.01,221.90C277.02,223.33 277.30,225.51 277.63,226.75C277.96,227.99 278.84,229.00 279.59,229.00C280.34,229.00 281.62,227.70 282.44,226.12C283.26,224.53 285.31,222.07 287.01,220.65C288.70,219.22 291.83,217.53 293.95,216.90C296.16,216.24 299.70,216.03 302.25,216.41C304.70,216.78 307.67,217.97 308.84,219.07C310.02,220.16 311.26,222.18 311.61,223.56C311.95,224.94 312.05,228.66 311.82,231.83C311.56,235.40 310.66,238.61 309.45,240.28C308.38,241.76 305.67,243.88 303.43,244.99C300.63,246.37 297.68,246.94 293.93,246.81zM509.00,245.65C491.68,245.77 476.15,245.52 474.50,245.10C472.85,244.68 470.05,243.58 468.28,242.66C466.51,241.73 464.61,240.13 464.05,239.09C463.50,238.06 462.75,234.73 462.39,231.70C462.04,228.67 462.07,222.29 462.47,217.52C463.12,209.74 463.51,208.48 466.33,205.28C468.06,203.31 470.92,201.09 472.70,200.35C474.48,199.61 477.19,199.02 478.72,199.05C481.35,199.09 481.12,199.44 474.67,205.37C468.85,210.71 467.88,212.07 468.17,214.50C468.42,216.69 469.49,217.88 472.75,219.59C477.00,221.83 477.00,221.83 511.75,220.90C530.86,220.39 547.09,219.75 547.81,219.49C548.54,219.23 548.89,218.62 548.59,218.15C548.30,217.67 545.46,216.92 542.28,216.49C539.10,216.05 524.81,215.42 510.53,215.10C484.56,214.50 484.56,214.50 484.53,180.60C484.51,158.38 484.86,146.20 485.55,145.26C486.27,144.27 489.92,143.54 497.05,142.95C502.80,142.48 515.15,142.04 524.50,141.98C534.38,141.92 540.66,141.53 539.49,141.06C538.38,140.61 531.45,139.74 524.09,139.12C516.73,138.50 504.99,138.00 497.99,138.00C485.27,138.00 485.27,138.00 484.54,112.90C484.11,98.36 484.18,87.42 484.70,86.90C485.19,86.41 488.27,85.51 491.55,84.90C495.32,84.20 505.92,83.96 520.50,84.25C536.70,84.57 544.68,85.12 547.50,86.11C551.47,87.51 551.50,87.57 551.40,92.51C551.35,95.26 551.22,129.28 551.11,168.11C550.92,238.73 550.92,238.73 548.71,240.80C547.49,241.94 545.15,243.44 543.50,244.15C541.31,245.08 531.95,245.49 509.00,245.65zM393.25,231.17C392.29,231.38 390.56,231.42 389.41,231.23C387.33,230.90 387.33,230.88 386.47,153.70C385.99,111.24 385.58,69.97 385.55,62.00C385.50,47.50 385.50,47.50 388.82,47.18C390.64,47.01 392.78,47.40 393.57,48.05C394.79,49.07 395.00,62.39 395.00,140.01C395.00,225.63 394.90,230.79 393.25,231.17zM440.96,222.59C438.51,222.80 435.54,222.48 434.36,221.89C433.19,221.29 431.75,219.74 431.16,218.45C430.46,216.91 430.16,205.69 430.29,185.96C430.50,155.83 430.50,155.83 433.31,153.41C435.21,151.78 437.34,151.00 439.92,151.00C442.26,151.00 444.75,151.80 446.37,153.07C449.00,155.15 449.00,155.15 449.00,186.46C449.00,215.06 448.84,217.97 447.21,219.99C445.98,221.51 444.04,222.32 440.96,222.59zM329.33,221.97C327.22,221.95 324.60,221.45 323.50,220.85C322.40,220.24 320.94,219.05 320.25,218.18C319.31,217.01 319.00,209.04 319.00,186.26C319.00,155.91 319.00,155.91 321.45,153.45C323.39,151.52 324.94,151.00 328.81,151.00C332.62,151.00 334.29,151.54 336.35,153.45C339.00,155.90 339.00,155.90 339.00,186.03C339.00,216.15 339.00,216.15 336.08,219.08C333.85,221.31 332.25,221.99 329.33,221.97zM148.15,219.00C145.15,219.00 142.79,218.45 142.07,217.59C141.27,216.62 141.23,215.97 141.95,215.53C142.53,215.17 143.00,213.80 143.00,212.48C143.00,211.06 142.14,209.61 140.91,208.95C138.81,207.83 138.81,207.83 140.91,205.60C142.06,204.37 143.00,202.41 143.00,201.24C143.00,200.06 142.24,198.67 141.31,198.15C139.79,197.30 139.75,196.78 140.95,193.15C142.13,189.58 142.09,188.78 140.62,186.55C139.70,185.15 138.73,184.00 138.46,184.00C138.19,184.00 137.11,184.54 136.06,185.19C134.55,186.14 132.08,186.02 124.33,184.65C118.93,183.69 114.13,182.53 113.68,182.08C113.22,181.62 113.16,177.55 113.56,173.04C114.22,165.46 114.47,164.76 116.89,163.74C118.57,163.02 128.85,162.60 145.70,162.56C160.11,162.53 171.53,162.13 171.09,161.69C170.64,161.24 166.95,160.40 162.89,159.83C158.74,159.25 147.38,159.00 137.00,159.27C126.83,159.53 117.77,160.05 116.87,160.43C115.42,161.05 115.17,159.08 114.52,141.68C114.12,130.98 114.09,121.29 114.46,120.14C114.88,118.81 116.48,117.68 118.85,117.04C120.90,116.49 127.12,115.54 132.68,114.94C139.87,114.16 146.77,114.14 156.64,114.88C164.26,115.46 172.86,116.64 175.75,117.50C181.00,119.08 181.00,119.08 181.00,149.92C181.00,173.39 180.70,180.99 179.75,181.76C179.06,182.31 174.39,183.71 169.38,184.88C164.36,186.05 158.64,187.00 156.66,187.00C153.07,187.00 153.07,187.00 153.18,197.75C153.24,203.66 152.96,209.25 152.57,210.17C152.17,211.09 152.37,212.81 153.00,214.00C153.63,215.19 153.91,216.80 153.61,217.58C153.24,218.54 151.47,219.00 148.15,219.00zM620.32,218.88C618.22,218.82 615.19,218.48 613.58,218.13C611.98,217.78 610.49,216.97 610.27,216.32C610.05,215.65 611.08,215.01 612.69,214.82C614.91,214.57 615.57,213.93 615.82,211.75C616.03,209.90 615.67,209.00 614.72,209.00C613.95,209.00 612.54,208.15 611.60,207.12C609.98,205.32 610.04,205.18 612.95,204.17C615.03,203.44 616.00,202.44 616.00,201.02C616.00,199.87 615.33,198.68 614.52,198.37C613.71,198.06 613.17,197.06 613.32,196.15C613.47,195.24 614.12,193.56 614.75,192.41C615.38,191.26 615.64,189.35 615.33,188.16C614.95,186.71 613.99,186.00 612.38,186.00C611.07,186.00 610.00,186.51 610.00,187.12C610.00,187.89 609.60,187.93 608.75,187.25C608.06,186.70 605.25,185.96 602.50,185.60C599.75,185.23 595.38,184.46 592.80,183.88C590.21,183.30 587.63,182.26 587.06,181.57C586.29,180.64 586.67,180.02 588.51,179.18C590.75,178.15 591.00,177.46 591.00,172.14C591.00,168.25 591.49,165.84 592.43,165.06C593.22,164.41 598.44,163.41 604.03,162.85C609.62,162.29 621.78,161.98 631.05,162.17C640.32,162.35 647.56,162.16 647.15,161.75C646.73,161.33 643.04,160.56 638.95,160.03C634.85,159.50 622.88,159.05 612.34,159.03C593.18,159.00 593.18,159.00 592.80,139.25C592.60,128.39 592.81,118.96 593.29,118.30C593.76,117.65 596.71,116.55 599.83,115.88C603.11,115.16 612.44,114.66 622.00,114.69C631.08,114.72 641.35,115.27 644.83,115.93C648.32,116.58 652.25,117.61 653.58,118.22C656.00,119.32 656.00,119.32 656.00,150.22C656.00,181.11 656.00,181.11 651.75,182.99C649.41,184.02 644.58,185.34 641.00,185.92C637.42,186.51 632.70,187.10 630.50,187.24C626.50,187.50 626.50,187.50 626.45,197.50C626.42,203.00 626.05,208.25 625.63,209.16C625.17,210.15 625.50,212.06 626.43,213.87C627.92,216.74 627.90,216.98 626.07,217.96C625.00,218.53 622.41,218.95 620.32,218.88zM562.04,216.00C559.14,216.00 556.78,215.44 556.08,214.60C555.34,213.71 555.02,210.15 555.21,204.87C555.49,196.92 555.62,196.50 558.10,195.63C559.53,195.13 562.37,195.03 564.40,195.42C566.44,195.80 568.95,196.95 569.98,197.98C571.01,199.01 572.16,201.85 572.52,204.30C572.99,207.45 572.74,209.61 571.63,211.75C570.77,213.40 569.35,215.04 568.46,215.38C567.56,215.72 564.68,216.00 562.04,216.00zM258.05,213.82C247.85,213.72 236.12,213.38 232.00,213.07C224.50,212.50 224.50,212.50 224.24,178.36C223.99,146.55 224.09,144.18 225.74,143.51C226.71,143.11 234.70,142.43 243.50,141.98C252.30,141.54 259.73,141.11 260.00,141.03C260.27,140.94 259.38,140.42 258.00,139.87C256.62,139.32 248.41,138.61 239.75,138.28C224.00,137.69 224.00,137.69 224.00,112.42C224.00,87.16 224.00,87.16 227.75,85.83C230.52,84.85 238.17,84.52 257.00,84.59C275.73,84.65 283.83,85.05 287.50,86.09C291.53,87.22 292.77,88.12 293.89,90.66C295.29,93.83 295.29,93.83 316.12,94.16C336.27,94.49 337.02,94.57 339.22,96.79C341.27,98.84 341.48,99.95 341.35,107.65C341.23,114.10 340.79,116.64 339.56,117.87C338.16,119.27 334.52,119.54 313.67,119.80C289.42,120.10 289.42,120.10 287.69,116.47C286.74,114.48 285.44,108.36 284.79,102.88C283.71,93.69 283.46,92.93 281.56,93.21C279.56,93.49 279.49,94.12 279.31,115.50C279.21,127.60 279.08,137.84 279.03,138.25C278.98,138.66 278.92,148.05 278.90,159.10C278.88,170.16 279.09,179.43 279.37,179.70C279.65,179.98 279.43,181.36 278.90,182.78C278.36,184.19 278.13,185.89 278.38,186.55C278.69,187.35 282.78,187.91 290.67,188.24C297.18,188.51 304.30,189.36 306.50,190.12C310.50,191.50 310.50,191.50 310.79,199.25C310.95,203.51 310.67,207.00 310.16,207.00C309.66,207.00 307.63,206.32 305.65,205.50C303.68,204.68 299.34,204.00 296.00,204.00C292.66,204.00 288.49,204.62 286.72,205.38C284.95,206.14 281.95,208.39 280.05,210.38C276.61,214.00 276.61,214.00 258.05,213.82zM330.27,213.48C332.90,213.27 335.49,212.81 336.04,212.48C336.59,212.14 336.77,211.44 336.46,210.93C336.14,210.42 333.77,210.01 331.19,210.01C328.61,210.02 325.49,210.30 324.25,210.63C323.01,210.96 322.00,211.60 322.00,212.04C322.00,212.49 322.79,213.08 323.75,213.37C324.71,213.65 327.65,213.70 330.27,213.48zM200.29,208.86C197.11,208.79 193.50,208.53 192.27,208.30C191.04,208.06 189.13,206.71 188.02,205.30C186.91,203.89 186.00,201.49 186.00,199.98C186.00,198.46 186.79,196.30 187.75,195.17C189.20,193.47 190.89,193.06 197.50,192.82C205.50,192.52 205.50,192.52 205.79,200.76C206.08,209.00 206.08,209.00 200.29,208.86zM539.09,197.44C539.54,197.16 539.66,196.28 539.35,195.47C539.00,194.55 539.39,194.00 540.39,194.00C541.82,194.00 542.00,191.63 542.00,173.08C542.00,161.58 541.73,151.45 541.39,150.58C541.06,149.71 540.22,149.00 539.53,149.00C538.79,149.00 538.01,150.92 537.64,153.64C537.29,156.19 537.00,164.85 537.01,172.89C537.01,180.93 537.30,189.85 537.64,192.72C537.99,195.60 538.64,197.72 539.09,197.44zM539.50,135.00C540.72,135.00 540.99,133.45 540.93,126.75C540.89,122.21 540.52,117.62 540.10,116.55C539.45,114.89 539.23,115.10 538.67,117.92C538.30,119.75 538.00,124.34 538.00,128.12C538.00,133.57 538.31,135.00 539.50,135.00zM454.00,119.70C444.93,119.81 436.48,119.48 435.24,118.98C433.99,118.47 432.49,116.80 431.90,115.28C431.31,113.75 431.00,109.41 431.20,105.63C431.52,99.88 431.96,98.45 433.93,96.86C436.07,95.13 437.82,94.98 453.39,95.23C470.50,95.50 470.50,95.50 470.50,107.50C470.50,119.50 470.50,119.50 454.00,119.70zM209.30,107.82C208.31,107.72 201.50,107.38 194.16,107.07C181.69,106.54 180.69,106.35 178.91,104.14C177.86,102.84 177.00,100.76 177.00,99.51C177.00,98.26 177.58,96.76 178.30,96.17C179.08,95.52 185.71,95.03 195.05,94.94C210.50,94.79 210.50,94.79 210.80,101.40C211.06,107.25 210.89,107.98 209.30,107.82zM571.90,106.83C560.15,107.13 558.94,107.00 558.30,105.33C557.91,104.32 557.57,101.48 557.55,99.00C557.50,94.50 557.50,94.50 566.00,94.22C570.67,94.07 577.65,94.29 581.50,94.72C588.50,95.50 588.50,95.50 588.80,99.05C589.02,101.67 588.53,103.11 586.95,104.55C585.10,106.23 583.00,106.55 571.90,106.83z" />

</svg>